Coordinates
version=1
nRows=11
nColumns=40
inDegrees=yes

Units are S.I. units (second, meters, Newtons, ...)
Angles are in degrees.

endheader
time	pelvis_tilt	pelvis_list	pelvis_rotation	pelvis_tx	pelvis_ty	pelvis_tz	hip_flexion_r	hip_adduction_r	hip_rotation_r	knee_angle_r	knee_angle_r_beta	ankle_angle_r	subtalar_angle_r	mtp_angle_r	hip_flexion_l	hip_adduction_l	hip_rotation_l	knee_angle_l	knee_angle_l_beta	ankle_angle_l	subtalar_angle_l	mtp_angle_l	lumbar_extension	lumbar_bending	lumbar_rotation	arm_flex_r	arm_add_r	arm_rot_r	elbow_flex_r	pro_sup_r	wrist_flex_r	wrist_dev_r	arm_flex_l	arm_add_l	arm_rot_l	elbow_flex_l	pro_sup_l	wrist_flex_l	wrist_dev_l
     13.47750000	     -5.73977718	     -4.58667193	      6.81331393	      1.01134471	      0.92517829	      0.48106259	      0.12794767	      1.57808792	    -17.35905950	     13.37931793	     13.37931793	     15.07572339	     -2.77082554	     -2.76246958	     25.50679957	     -5.57461105	      1.42352268	     21.87625597	     21.87625597	      5.65853266	     -8.69524439	     -1.61758004	     -7.54648022	      2.76502655	      5.10070410	     56.58452607	    -13.99502982	      3.33798466	     88.86880144	     41.99826908	      0.00000000	      0.00000000	     -4.28426005	    -14.59621321	     24.81496397	     34.62187562	     40.91939787	      0.00000000	      0.00000000
     13.50057143	     -5.80500022	     -4.44281889	      6.52530636	      1.01203186	      0.92584302	      0.47634606	     -0.04145204	      0.98334247	    -17.51306380	     13.68034646	     13.68034646	     14.85458486	     -2.22461811	     -3.01554090	     25.09513563	     -5.18318903	      1.28730682	     21.93329391	     21.93329391	      6.40730818	     -8.86106655	     -0.57361876	     -7.43297673	      2.76638863	      4.85667376	     57.06732712	    -13.59008055	      3.38034198	     86.62924543	     42.29714667	      0.00000000	      0.00000000	     -3.71580377	    -15.04395477	     24.95977333	     34.66656269	     41.22345247	      0.00000000	      0.00000000
     13.52364286	     -5.85616858	     -4.36383206	      6.22002709	      1.01263437	      0.92644971	      0.47185149	     -0.22173189	      0.51313593	    -17.45100404	     13.92319066	     13.92319066	     14.57422163	     -2.02332577	     -3.06388546	     24.67010559	     -4.90011628	      1.06541238	     21.92845767	     21.92845767	      6.75319570	     -9.06578445	     -0.53613744	     -7.41536487	      2.81906746	      5.05521196	     57.07535243	    -13.75934053	      3.26772867	     85.75083733	     42.37113872	      0.00000000	      0.00000000	     -2.96808489	    -15.41282418	     24.85388912	     34.84041178	     41.30301475	      0.00000000	      0.00000000
     13.54671429	     -5.89686198	     -4.27577510	      5.90685817	      1.01318102	      0.92695572	      0.46744519	     -0.39230771	      0.01986798	    -17.42672533	     14.19986316	     14.19986316	     14.35329075	     -1.73716605	     -3.20504944	     24.23965384	     -4.60393973	      0.84633673	     21.92582930	     21.92582930	      7.08879579	     -9.33194657	     -0.44802253	     -7.35205510	      2.86180508	      5.19660468	     57.09680145	    -13.87984553	      3.11555462	     84.39091987	     42.46450306	      0.00000000	      0.00000000	     -2.21655038	    -15.77455568	     24.80819984	     34.93787708	     41.37819869	      0.00000000	      0.00000000
     13.56978571	     -5.96940629	     -4.21216931	      5.58255865	      1.01357274	      0.92736768	      0.46318175	     -0.48513726	     -0.46150317	    -17.42784953	     14.52612799	     14.52612799	     14.11215594	     -1.37447981	     -3.44323488	     23.86780758	     -4.32713254	      0.67776952	     21.94182935	     21.94182935	      7.43631367	     -9.63709989	     -0.27956740	     -7.24082776	      2.92630279	      5.21163178	     57.22398952	    -13.78903985	      2.96766568	     82.40319735	     42.59678451	      0.00000000	      0.00000000	     -1.48861423	    -16.11951508	     24.87233908	     34.92323090	     41.46584962	      0.00000000	      0.00000000
     13.59285714	     -6.05586577	     -4.28162847	      5.28906019	      1.01395427	      0.92765628	      0.45901902	     -0.61938345	     -0.73079169	    -17.25324001	     14.68105856	     14.68105856	     13.80972615	     -1.25591936	     -3.39141469	     23.57883664	     -4.19948476	      0.49947528	     22.02400738	     22.02400738	      7.78301569	     -9.84423371	     -0.37791315	     -7.18459938	      3.14778353	      4.99908238	     56.97971642	    -13.78130356	      2.98408407	     82.15976613	     42.60725948	      0.00000000	      0.00000000	     -1.01369817	    -16.37523705	     24.80571737	     34.99745495	     41.48458232	      0.00000000	      0.00000000
     13.61592857	     -5.98068282	     -4.09323659	      4.88916161	      1.01426915	      0.92800310	      0.45496657	     -0.66480671	     -1.40973442	    -17.15698449	     15.40001430	     15.40001430	     13.70590629	     -0.94712725	     -4.00731142	     23.09459427	     -3.83193244	      0.26606868	     22.18003391	     22.18003391	      8.28455793	    -10.19714146	      0.14762277	     -7.11397438	      3.10018663	      4.79080728	     57.46380743	    -13.04400299	      2.86295474	     77.44334098	     42.91152632	      0.00000000	      0.00000000	     -0.23433714	    -16.81847457	     25.25297950	     34.73784001	     41.64786905	      0.00000000	      0.00000000
     13.63900000	     -5.96112897	     -4.05103199	      4.50152787	      1.01449630	      0.92824201	      0.45105983	     -0.60599810	     -1.89016259	    -16.85719585	     16.12111188	     16.12111188	     13.56506695	     -1.00049053	     -4.21438620	     22.70529781	     -3.64193191	     -0.03582315	     22.31116414	     22.31116414	      8.67718603	    -10.40343844	      0.18977446	     -7.10893169	      3.18372377	      4.96887074	     57.06140273	    -13.28679425	      2.78356098	     75.75304255	     43.01643932	      0.00000000	      0.00000000	      0.60118054	    -17.05332622	     25.23100229	     35.00812740	     41.73223113	      0.00000000	      0.00000000
     13.66207143	     -5.80448015	     -4.10510589	      4.15518358	      1.01489284	      0.92861150	      0.44722826	     -0.76206689	     -2.21662065	    -16.55172223	     16.69154112	     16.69154112	     13.39127965	     -0.99260620	     -4.29923387	     22.20291032	     -3.54977837	     -0.23753887	     22.49907865	     22.49907865	      9.06755451	    -10.64149481	      0.09686091	     -7.26043873	      3.41330587	      4.83455278	     56.24080531	    -13.22310364	      2.86651504	     75.01248584	     43.04389987	      0.00000000	      0.00000000	      1.35187059	    -17.31600545	     25.15702095	     35.16648278	     41.76283650	      0.00000000	      0.00000000
     13.68514286	     -5.78300331	     -3.97344750	      3.71711294	      1.01488385	      0.92859705	      0.44345585	     -0.29258715	     -2.87181611	    -15.95564880	     18.12268439	     18.12268439	     13.24867561	     -1.63413994	     -4.89454703	     21.87233925	     -3.27619768	     -0.59602986	     22.74755381	     22.74755381	      9.67283315	    -10.80408486	      0.52756382	     -7.09670546	      3.45680242	      4.59609120	     56.59516563	    -12.65054828	      2.63092433	     69.95514669	     43.33485977	      0.00000000	      0.00000000	      2.20918090	    -17.54023683	     25.86643051	     34.95331120	     41.86111802	      0.00000000	      0.00000000
     13.70821429	     -5.61648062	     -3.86384768	      3.30264351	      1.01509836	      0.92874683	      0.43973212	      0.04348532	     -3.50070322	    -15.44953081	     19.60825383	     19.60825383	     13.16515982	     -2.08956053	     -5.26669968	     21.34171388	     -3.04177269	     -0.97809010	     22.91427672	     22.91427672	     10.12092024	    -10.93627040	      0.46077431	     -7.23236956	      3.50700100	      4.62445686	     55.61312338	    -12.86919478	      2.60720204	     68.55079722	     43.40354173	      0.00000000	      0.00000000	      3.14906319	    -17.69780506	     25.84483329	     35.32985630	     41.91432186	      0.00000000	      0.00000000
